<?xml version="1.0" standalone="no"?>
<!DOCTYPE svg PUBLIC "-//W3C//DTD SVG 20010904//EN"
 "http://www.w3.org/TR/2001/REC-SVG-20010904/DTD/svg10.dtd">
<svg version="1.0" xmlns="http://www.w3.org/2000/svg"
 width="600.000000pt" height="600.000000pt" viewBox="0 0 600.000000 600.000000"
 preserveAspectRatio="xMidYMid meet">
<metadata>
Created by potrace 1.14, written by Peter Selinger 2001-2017
</metadata>
<g transform="translate(0.000000,600.000000) scale(0.100000,-0.100000)"
fill="#000000" stroke="none">
<path d="M3230 5199 c0 -5 4 -9 9 -9 5 0 16 -6 23 -13 7 -7 42 -32 77 -55 72
-48 72 -53 1 -17 -27 14 -57 25 -67 25 -10 0 -47 9 -83 20 -100 31 -243 43
-310 28 -90 -22 -294 -109 -390 -168 -81 -50 -209 -147 -256 -194 -16 -17 -64
-63 -105 -102 -41 -39 -103 -103 -139 -144 -36 -40 -71 -78 -77 -86 -7 -7 -13
-17 -13 -22 0 -6 -4 -12 -8 -14 -13 -5 -82 -98 -82 -111 0 -6 10 -2 23 9 27
23 84 64 91 64 2 0 -9 -44 -26 -97 -26 -88 -28 -107 -23 -188 6 -104 13 -166
21 -215 7 -40 10 -56 18 -121 3 -26 8 -53 11 -61 4 -10 -14 -27 -55 -52 l-61
-38 6 -59 c10 -87 12 -98 29 -174 26 -124 169 -525 186 -525 4 0 21 5 39 11
18 6 35 9 38 5 6 -5 5 -56 -2 -186 -1 -30 2 -60 7 -67 5 -7 7 -17 3 -23 -3 -5
-2 -10 4 -10 5 0 12 10 15 23 2 12 4 -8 2 -45 -1 -38 -1 -68 0 -68 1 0 11 14
22 31 l20 32 7 -34 c4 -18 17 -46 28 -61 11 -15 21 -42 22 -60 2 -18 9 -80 16
-137 l13 -103 -35 -29 c-65 -55 -281 -158 -567 -270 -68 -27 -149 -60 -180
-75 -31 -14 -88 -39 -127 -57 -138 -61 -334 -166 -431 -230 -109 -72 -165
-121 -210 -182 -16 -22 -31 -42 -34 -45 -24 -22 -76 -99 -106 -156 -20 -38
-41 -75 -46 -82 -6 -6 -8 -12 -4 -12 4 0 0 -13 -8 -29 -42 -80 -158 -481 -216
-742 -33 -146 -35 -161 -45 -236 l-6 -43 2721 0 2720 0 -4 23 c-35 182 -65
306 -107 440 -27 89 -51 171 -53 182 -11 52 -70 234 -110 337 -84 216 -156
354 -211 400 -31 28 -211 147 -232 155 -10 3 -20 9 -23 13 -3 4 -32 21 -65 39
-33 18 -78 43 -100 55 -120 67 -179 98 -376 197 -119 60 -220 109 -224 109 -5
0 -16 6 -24 13 -9 7 -50 28 -91 47 -41 18 -118 54 -170 80 -174 86 -221 120
-213 153 2 12 6 63 8 113 3 74 8 101 29 140 29 57 35 82 43 184 3 41 8 77 12
80 3 3 7 41 7 85 1 44 2 95 3 113 l1 33 59 -7 c87 -9 98 7 126 196 3 19 10 60
14 90 5 30 9 62 9 70 0 8 3 26 5 40 8 39 26 159 33 220 3 30 8 58 10 61 5 9
-72 59 -91 59 -14 0 -15 12 -11 80 3 44 6 134 7 200 1 82 6 127 16 147 9 17
12 40 8 59 -4 22 -1 34 7 37 10 3 9 9 -5 24 -14 17 -16 27 -8 70 15 79 6 233
-16 284 -36 81 -101 130 -215 163 -57 16 -58 17 -59 54 -3 148 -73 245 -199
277 -114 29 -167 47 -205 68 -25 14 -45 21 -45 16z m-1109 -2536 c-12 -20 -14
-14 -5 12 4 9 9 14 11 11 3 -2 0 -13 -6 -23z"/>
</g>
</svg>
